<svg width="27" height="25" viewBox="0 0 40 37" fill="none" xmlns="http://www.w3.org/2000/svg">
<path d="M38.7793 18.0386C38.1438 18.0386 37.6354 18.547 37.6354 19.1824V29.5868C37.6354 32.4167 35.3309 34.7127 32.5095 34.7127H7.41356C4.5837 34.7127 2.28761 32.4082 2.28761 29.5868V19.0129C2.28761 18.3775 1.77925 17.8691 1.14381 17.8691C0.508358 17.8691 0 18.3775 0 19.0129V29.5868C0 33.6791 3.32975 37.0004 7.41356 37.0004H32.5095C36.6018 37.0004 39.9231 33.6706 39.9231 29.5868V19.1824C39.9231 18.5554 39.4147 18.0386 38.7793 18.0386Z" fill="#99DFFF"/>
<path d="M19.1567 27.9173C19.3769 28.1376 19.6735 28.2562 19.9616 28.2562C20.2496 28.2562 20.5462 28.1461 20.7665 27.9173L28.036 20.6478C28.485 20.1988 28.485 19.4786 28.036 19.0295C27.5869 18.5805 26.8667 18.5805 26.4177 19.0295L21.1054 24.3504V1.14381C21.1054 0.508358 20.597 0 19.9616 0C19.3261 0 18.8177 0.508358 18.8177 1.14381V24.3504L13.4969 19.0295C13.0479 18.5805 12.3277 18.5805 11.8787 19.0295C11.4296 19.4786 11.4296 20.1988 11.8787 20.6478L19.1567 27.9173Z" fill="#99DFFF"/>
</svg>
