<svg width="1349" height="948" viewBox="0 0 1349 948" fill="none" xmlns="http://www.w3.org/2000/svg">
<path d="M48.674 199.42C-2.32247 280.636 -12.9755 377.821 17.0125 488.273C26.7565 524.164 39.1371 558.704 53.81 590.929C130.853 760.13 273.339 874.978 465.856 923.051C590.854 954.265 730.531 955.28 869.785 925.98C1002.82 897.991 1128.01 842.769 1222.28 770.492L1223 769.935C1298.07 710.181 1382.51 579.274 1335.17 475.324C1320.7 443.544 1287.29 401.73 1210.35 382.935C1178.83 374.98 1148.65 370.452 1122.01 366.454C1051.06 355.799 1022.95 348.926 1009.21 318.752C1004.82 309.109 1001.6 296.755 999.651 282.026C996.706 259.76 990.437 237.977 981.03 217.309C981.021 217.29 981.015 217.275 981.006 217.256C937.959 122.718 826.825 50.0333 676.079 17.8531C537.664 -11.701 382.394 -3.1533 260.737 40.7113C165.667 75.0005 92.3336 129.877 48.674 199.42ZM736.623 156.332C804.327 176.919 847.683 231.533 833.459 278.307C819.235 325.08 752.82 346.307 685.114 325.721C617.415 305.129 574.056 250.523 588.284 203.751C602.515 156.971 668.928 135.741 736.623 156.332Z" fill="#222E3D"/>
</svg>
